# xmcd
#
# Track frame offsets:
# 150
# 19876
# 38397
# 55405
# 78941
# 95532
# 115522
# 134102
# 152531
# 171945
# 188689
# 205366
# 223501
# 243532
# 261173
# 276206
# 296282
# 318839
# 335589
#
# Disc length: 4704 seconds
#
#
# Revision: 0
# Processed by: cddbd v1.5.2PL0 Copyright (c) Steve Scherf et al.
# Submitted via: FreeRIP 2.945 
#
DISCID=0f125e13
DTITLE=Paula Fernades - Grandes Sucessos
DYEAR=2010
DGENRE=Country
TTITLE0=Quando a Chuva Passar
TTITLE1=Pássaro de Fogo
TTITLE2=Ok!
TTITLE3=Quero Sim
TTITLE4=Dust in the Wind
TTITLE5=Canções do Vento Sul
TTITLE6=Meu Eu em Você
TTITLE7=Behind Blue Eyes
TTITLE8=Só Penso em Nós
TTITLE9=Complicado Demais
TTITLE10=Sem Você
TTITLE11=Chuva Chover
TTITLE12=One of Us
TTITLE13=Música e Rodeio
TTITLE14=Espaço Sideral
TTITLE15=Luz, Paixão, Rodeio
TTITLE16=Jeito de Mato
TTITLE17=Rosa Dourada
TTITLE18=Sem Você
EXTD=
EXTT0=
EXTT1=
EXTT2=
EXTT3=
EXTT4=
EXTT5=
EXTT6=
EXTT7=
EXTT8=
EXTT9=
EXTT10=
EXTT11=
EXTT12=
EXTT13=
EXTT14=
EXTT15=
EXTT16=
EXTT17=
EXTT18=
PLAYORDER=
